<svg width="58" height="47" viewBox="0 0 58 47" fill="none" xmlns="http://www.w3.org/2000/svg">
<path fill-rule="evenodd" clip-rule="evenodd" d="M23.2037 3.8439C22.9792 3.98875 22.7179 4.05931 22.4529 4.04074V4.04445C19.4092 4.04445 16.8918 6.24309 16.8697 7.5541C16.8697 8.20033 17.3739 8.50115 18.0548 8.62743C20.3772 9.02853 21.6616 9.94958 23.443 12.7833C24.7827 14.8687 26.459 17.5061 27.4923 19.1318C28.0287 19.9758 28.3919 20.5471 28.4447 20.6271C28.6692 20.9725 28.7943 21.0096 28.9599 21.0096C29.1256 21.0096 29.2581 20.9762 29.4936 20.6271C29.5449 20.5435 29.9413 19.923 30.5214 19.0151C31.5652 17.3813 33.2036 14.817 34.4953 12.7759C36.3245 9.93101 37.5648 9.02481 39.8835 8.62371C40.5717 8.49744 41.0686 8.19661 41.0686 7.55039C41.0686 6.24309 38.5659 4.04074 35.5038 4.04074C35.2388 4.05931 34.9738 3.98875 34.753 3.8439C34.5321 3.69906 34.3628 3.48365 34.2708 3.23111C33.7629 2.25435 33.0011 1.43729 32.0699 0.869057C31.1388 0.300828 30.0678 0 28.9784 0C27.8889 0 26.8179 0.300828 25.8868 0.869057C24.952 1.441 24.1901 2.25435 23.6859 3.23111C23.5976 3.48365 23.4246 3.69906 23.2037 3.8439ZM21.2531 15.1899C18.7431 11.242 15.6294 9.96815 12.6924 9.96815H12.6887C8.78012 9.96815 7.36683 12.0405 7.36683 12.8836C7.36683 13.2253 7.54717 13.5298 8.13972 13.5298C10.9258 13.5298 12.6777 15.1973 14.0358 17.4294C15.3939 19.6652 22.1475 30.6064 22.2358 30.7327C22.2763 30.8144 22.3388 30.8886 22.4161 30.9369C22.4971 30.9889 22.5854 31.0149 22.6774 31.0149C22.7731 31.0149 22.8651 30.9889 22.9461 30.9406C23.0271 30.8924 23.097 30.8218 23.1412 30.7401C23.2369 30.5841 26.7959 24.9352 26.8805 24.8164C26.9541 24.7087 26.9946 24.5824 26.9983 24.4524C26.9946 24.3261 26.9578 24.2036 26.8842 24.1033C26.8179 23.9808 22.5302 17.1917 21.2531 15.1899ZM20.3698 46.346C21.1169 46.7768 21.9634 46.9996 22.8247 46.9996C23.6859 47.0107 24.5361 46.7916 25.2869 46.3608C26.0377 45.9337 26.6597 45.3098 27.094 44.5558C28.0803 42.97 42.5555 19.6615 43.9099 17.4331C45.2643 15.2048 47.0125 13.5335 49.8023 13.5335C50.3948 13.5335 50.5788 13.229 50.5788 12.8873C50.5788 12.0442 49.1471 9.97186 45.2385 9.97186C42.2905 9.97186 39.1879 11.2457 36.6778 15.1936C35.3897 17.1917 25.4046 33.0761 23.2921 36.4781C23.2001 36.6378 23.0197 36.8903 22.7658 36.8903C22.5118 36.8903 22.383 36.7343 22.2211 36.4781C17.937 29.7113 12.1956 20.5825 12.1956 20.5825C9.84744 16.8018 7.13128 15.8807 4.79788 15.8807C1.70264 15.8807 -0.00140381 17.5037 -0.00140381 18.577C-0.00140381 18.9595 0.164216 19.3718 0.900303 19.3718C2.7626 19.3718 3.46189 20.3485 5.51557 23.6911C7.07239 26.1534 18.5664 44.5447 18.5664 44.5447C19.0007 45.2949 19.6227 45.9151 20.3698 46.346ZM52.4779 23.6911C54.5353 20.3485 55.2309 19.3718 57.0932 19.3718H57.0969C57.8256 19.3718 57.9986 18.9595 57.9986 18.577C57.9986 17.5037 56.2945 15.8807 53.1993 15.8807C50.8733 15.8807 48.1755 16.8018 45.8016 20.5825C45.8016 20.5825 31.2529 43.6682 31.1572 43.8316C31.0136 43.9876 30.9216 44.1807 30.8885 44.3887C30.9216 44.5967 31.0136 44.7861 31.1572 44.9347C31.6209 45.5772 32.2319 46.0971 32.9348 46.4574C33.6378 46.8139 34.4144 46.9996 35.202 46.9996C36.0595 47.0033 36.906 46.7768 37.6531 46.346C38.4003 45.9151 39.0223 45.2949 39.4566 44.5447C39.4566 44.5447 50.9542 26.1534 52.4779 23.6911Z" fill="#D5C9BE"/>
</svg>
